<?xml version="1.0" encoding="utf-8"?>
<!-- Generator: Adobe Illustrator 21.0.2, SVG Export Plug-In . SVG Version: 6.00 Build 0)  -->
<svg version="1.1" id="Layer_1" xmlns="http://www.w3.org/2000/svg" xmlns:xlink="http://www.w3.org/1999/xlink" x="0px" y="0px"
	 viewBox="0 0 512 512" style="enable-background:new 0 0 512 512;" xml:space="preserve">
<style type="text/css">
	.st0{fill:#0AE819;stroke:#000407;stroke-width:8;}
	.st1{fill:#0AE819;stroke:#000407;stroke-width:6;}
</style>
<g transform="translate(0,0)">
	<path class="st0" d="M257,82.1c-92.7,0-168,75.3-168,168c0,92.7,75.3,168,168,168s168-75.3,168-168C425,157.4,349.7,82.1,257,82.1z
		 M250.4,98.4v12.7c2.2-0.1,4.4-0.2,6.6-0.2c2.2,0,4.4,0.1,6.5,0.2V98.4c9.1,0.4,18.1,1.6,26.7,3.5l-3.3,12.3
		c4.3,0.9,8.5,2.1,12.6,3.4l3.3-12.3c8.7,2.7,17,6.2,24.9,10.4l-6.4,11.1c3.9,2,7.6,4.2,11.3,6.6l6.4-11.2
		c7.6,4.9,14.7,10.4,21.3,16.5l-9.2,9.2c3.2,3,6.2,6.1,9.1,9.4l9.3-9.3c6,6.6,11.4,13.8,16.2,21.4l-11.4,6.6
		c2.3,3.7,4.4,7.5,6.4,11.4l11.5-6.6c4,7.9,7.4,16.2,10,24.8l-13,3.5c1.3,4.2,2.3,8.4,3.2,12.7l13.1-3.5c1.8,8.6,2.9,17.4,3.2,26.5
		h-13.7c0,1.4,0.1,2.9,0.1,4.3c0,3-0.1,5.9-0.3,8.8h13.8c-0.5,9-1.7,17.8-3.6,26.3l-13.5-3.6c-1,4.3-2.2,8.5-3.6,12.6l13.6,3.7
		c-2.7,8.5-6.2,16.7-10.3,24.5l-12.3-7.1c-2.1,3.9-4.3,7.6-6.7,11.2l12.4,7.2c-4.8,7.4-10.3,14.4-16.3,20.9l-10.3-10.3
		c-3,3.2-6.1,6.2-9.4,9.1l10.3,10.3c-6.5,5.9-13.6,11.3-21,16l-7.3-12.7c-3.7,2.3-7.5,4.5-11.4,6.5l7.4,12.7
		c-7.8,4-15.9,7.4-24.4,10l-3.8-14.3c-4.1,1.3-8.4,2.4-12.6,3.3l3.8,14.3c-8.5,1.9-17.2,3-26.1,3.4v-14.8c-2.2,0.1-4.3,0.2-6.5,0.2
		c-2.2,0-4.4-0.1-6.6-0.2v14.8c-8.9-0.4-17.7-1.5-26.1-3.4l3.8-14.3c-4.3-0.9-8.5-2-12.6-3.3l-3.8,14.3c-8.5-2.6-16.6-6-24.4-10
		l7.4-12.7c-3.9-2-7.7-4.1-11.4-6.5l-7.3,12.7c-7.5-4.7-14.5-10.1-21-16l10.3-10.3c-3.3-2.9-6.4-6-9.3-9.2l-10.3,10.3
		c-6-6.5-11.4-13.4-16.3-20.9l12.4-7.2c-2.4-3.6-4.7-7.3-6.7-11.2l-12.3,7.1c-4.1-7.8-7.6-16-10.3-24.5l13.6-3.7
		c-1.4-4.1-2.6-8.3-3.6-12.6l-13.5,3.6c-1.9-8.5-3.2-17.3-3.6-26.3h13.8c-0.2-2.9-0.3-5.8-0.3-8.8c0-1.4,0-2.9,0.1-4.3h-13.7
		c0.3-9,1.4-17.9,3.2-26.5l13.1,3.5c0.9-4.3,1.9-8.5,3.2-12.7l-13-3.5c2.6-8.6,6-16.9,10-24.8l11.5,6.6c2-3.9,4.1-7.7,6.4-11.4
		l-11.4-6.6c4.8-7.6,10.2-14.8,16.2-21.4l9.3,9.3c2.9-3.3,5.9-6.4,9.1-9.4l-9.2-9.2c6.6-6.1,13.7-11.6,21.2-16.5l6.4,11.2
		c3.6-2.4,7.4-4.6,11.3-6.7l-6.4-11.1c7.9-4.2,16.2-7.6,24.9-10.4l3.3,12.3c4.1-1.3,8.3-2.5,12.6-3.4l-3.3-12.3
		C232.4,100,241.3,98.8,250.4,98.4L250.4,98.4z"/>
</g>
<g transform="translate(0,0)">
	<path class="st1" d="M261.5,147.1l20.9,16.3l27.5,56l-3.6,14.7l-11.1-1.9l1.4-4.8l1.3-4.3l-40.8-8.3l-40.8,8.3l2.7,9.1l-11.1,1.9
		l-3.6-14.7l27.5-56l21.6-16.3v25.6h-17.6l-7.1,14.4l28.5,17.3l28.5-17.3l-7.1-14.4h-17V147.1z M345,224l13.5,4.6l-6,13.3l-13.4-2.3
		L345,224z M169,224l5.9,15.6l-13.4,2.3l-6-13.3L169,224z M257,224.9l24,26.7l-12.7,43.2h-22.6L233,251.6L257,224.9z M268.3,225.4
		l19.3,3.9l-3.9,13.2L268.3,225.4z M245.7,225.4l-15.4,17.1l-3.9-13.2L245.7,225.4z M292.8,240.1l65.2,11.1L334.5,299L290,249.5
		L292.8,240.1z M221.2,240.1l2.8,9.5L179.5,299L156,251.1L221.2,240.1z M287.3,258.7l32.2,35.8l-37.7-17.1L287.3,258.7z
		 M226.7,258.7l5.5,18.7l-37.7,17.1L226.7,258.7z M279.1,285.7l12.7,5.7l-9.8,39.7h-21.2v-27.9h13.1L279.1,285.7z M234.9,285.7
		l5.2,17.6h13.1v27.9H232l-9.8-39.7L234.9,285.7z M315.7,301.7l8.1,3.7l-4.5,9.8l-7.3-3.7L315.7,301.7z M198.3,301.7l3.7,9.8
		l-7.3,3.7l-4.5-9.8L198.3,301.7z M281.8,339.6v13.6h-13.4v-13.6H281.8z M246.2,339.6v13.6h-13.4v-13.6H246.2z"/>
</g>
</svg>
