<svg xmlns="http://www.w3.org/2000/svg" viewBox="0 0 512 512" style="height: 512px; width: 512px;"><circle cx="256" cy="256" r="256" fill="#f8e71c" fill-opacity="1"></circle><g class="" transform="translate(0,0)" style="touch-action: none;"><path d="M20.91 20.002v32.29l357.793 338.9L20.91 101.407v58.942l355.942 250.224-86.89-17.527 26.913 30.947-70.502 3.008 245.633 64.603-65.502-249.054-15.352 92.36-27.3-31.46 16.683 60.464L161.26 20.002h-22.37l142.276 208.935L109.496 42.17l98.975 138.547L45.194 20.002H20.91zm433 92.186l-32.234 38.482 55.19 208.21 15.286-217.794-38.242-28.9zm-231.88 327.89l-24.975 23.47 21.674 27.62 149.225-12.78-145.926-38.31z" fill="#000000" fill-opacity="1" stroke="#4a90e2" stroke-opacity="1" stroke-width="8" transform="translate(76.8, 76.8) scale(0.7, 0.7) rotate(0, 256, 256)"></path></g><g class="" transform="translate(-4,297)" style="touch-action: none;"><g transform="translate(6.4, 6.4) scale(0.8, 0.8) rotate(0, 128, 128)"><circle cx="128" cy="128" r="128" fill="#000" fill-opacity="1"></circle><circle stroke="#7ed321" stroke-opacity="1" fill="#000" fill-opacity="1" stroke-width="18" cx="128" cy="128" r="101"></circle><path fill="#7ed321" fill-opacity="1" d="M119 64v55H64v18h55v55h18v-55h55v-18h-55V64h-18z"></path></g></g></svg>